# xmcd
#
# Track frame offsets:
#	150
#	13602
#	24900
#	39900
#	54170
#	68977
#	84250
#	98912
#	113027
#	126872
#	135280
#	147567
#	159415
#	174312
#	187290
#	202025
#	215707
#	229127
#	242710
#	256505
#	269220
#	282367
#	294220
#	305417
#	317045
#
# Disc length: 4391 seconds
#
# Revision: 0
# Processed by: cddbd v1.5.1PL2 Copyright (c) Steve Scherf et al.
# Submitted via: dBpowerAMP V4.0
#
DISCID=65112519
DTITLE=Charlie Spand - The Complete Paramounts (1929 - 1931)
DYEAR=1900
DGENRE=blues
TTITLE0=Soon This Morning Blues
TTITLE1=Fetch Your Water
TTITLE2=Good Gal
TTITLE3=Ain't Gonna Stand For That
TTITLE4=Moanin' The Blues
TTITLE5=Back To The Woods Blues
TTITLE6=Hastings St.
TTITLE7=In The Barrel Blues
TTITLE8=Levee Camp Man (take 2)
TTITLE9=Breakdown (Levee Camp Man)
TTITLE10=Mississippi Blues (take 2)
TTITLE11=45th St. Blues
TTITLE12=Got To Have My Sweetbread (take 3)
TTITLE13=Got To Have My Sweetbread (take 4)
TTITLE14=Room Rent Blues
TTITLE15=Mistreatment Blues
TTITLE16=Soon This Morning - no. 2
TTITLE17=She's Got Good Stuff
TTITLE18=Thirsty Woman Blues
TTITLE19=Dreamin' The Blues
TTITLE20=Big Fat Mama Blues (take 1)
TTITLE21=Hard Time Blues
TTITLE22=Georgia Mule Blues
TTITLE23=Tired Woman Blues
TTITLE24=Evil Woman Spell
EXTD=Document DOCD-5108
EXTT0=
EXTT1=
EXTT2=
EXTT3=
EXTT4=
EXTT5=
EXTT6=
EXTT7=
EXTT8=
EXTT9=
EXTT10=
EXTT11=
EXTT12=
EXTT13=
EXTT14=
EXTT15=
EXTT16=
EXTT17=
EXTT18=
EXTT19=
EXTT20=
EXTT21=
EXTT22=
EXTT23=
EXTT24=
PLAYORDER=
